<?xml version="1.0" encoding="iso-8859-1"?>
<!-- Generator: Adobe Illustrator 19.0.0, SVG Export Plug-In . SVG Version: 6.00 Build 0)  -->
<svg version="1.1" id="Capa_1" xmlns="http://www.w3.org/2000/svg" xmlns:xlink="http://www.w3.org/1999/xlink" x="0px" y="0px"
	 viewBox="0 0 368 368" style="fill: white;" xml:space="preserve">
<g>
	<g>
		<path d="M344.856,195.234c5.664-6.52,10.304-14.216,14.504-24.056c1.008-2.376,0.816-5.096-0.528-7.304
			c-1.344-2.208-3.672-3.624-6.248-3.816c-8.712-0.64-15.608-3.224-23.328-6.936C304.192,141.298,288,115.746,288,88.034
			c0-8.32,2.392-17.72,7.304-28.744c1.064-2.376,0.896-5.128-0.44-7.36c-1.336-2.24-3.672-3.68-6.28-3.872
			c-1.672-0.128-4.12-0.096-6.312-0.056L280,48.034c-27.696,0-53.368,13.04-69.944,34.936c-8.528-1.912-17.256-2.936-26.056-2.936
			c-57.064,0-106.36,40.96-117.528,96.28C29.352,179.162,0,210.202,0,248.034c0,39.696,32.304,72,72,72h224
			c39.696,0,72-32.304,72-72C368,227.898,359.472,208.77,344.856,195.234z M219.96,96.37c12.672-19.2,33.512-31.056,56.288-32.232
			C273.4,72.706,272,80.594,272,88.034c0,33.872,19.792,65.096,50.368,79.528c5.296,2.544,11.04,5.016,17.728,6.664
			c-3.56,6.36-7.552,11.376-12.384,15.68c-13.104,11.696-30.048,18.128-47.712,18.128c-10.856,0-21.184-2.32-30.744-6.912
			C224.192,189.298,208,163.746,208,136.034C208,121.85,212.128,108.138,219.96,96.37z M296,304.034H72c-30.88,0-56-25.12-56-56
			s25.12-56,55.6-56.072c0.088,0.016,0.184,0.016,0.28,0.024c0.04,0.008,0.072,0.032,0.112,0.04c0.368,0.056,0.736,0.08,1.104,0.08
			c0.008,0,0.024,0,0.032,0c4.168,0,8.456,0.544,12.752,1.624c0.312,0.136,0.64,0.248,0.976,0.336
			c14.08,3.84,26.352,13.312,33.664,25.968c2.208,3.824,7.096,5.136,10.928,2.92c3.824-2.208,5.136-7.104,2.92-10.928
			C125.16,196.09,109.84,184.09,92.2,178.954c-0.368-0.168-0.752-0.304-1.152-0.408c-2.8-0.752-5.6-1.32-8.4-1.72
			c10.688-46.608,52.808-80.792,101.36-80.792c5.696,0,11.36,0.52,16.944,1.456c-5.864,11.936-8.952,25.056-8.952,38.544
			c0,33.872,19.792,65.096,50.376,79.528c11.688,5.624,24.344,8.472,37.624,8.472c19.304,0,37.888-6.336,53.064-17.88
			C345,216.722,352,231.97,352,248.034C352,278.914,326.88,304.034,296,304.034z"/>
	</g>
</g>
<g>
</g>
<g>
</g>
<g>
</g>
<g>
</g>
<g>
</g>
<g>
</g>
<g>
</g>
<g>
</g>
<g>
</g>
<g>
</g>
<g>
</g>
<g>
</g>
<g>
</g>
<g>
</g>
<g>
</g>
</svg>
