<svg height="597pt" viewBox="-18 -91 597.33331 597" width="597pt" xmlns="http://www.w3.org/2000/svg" style="fill: white;"><path d="m261.75 304.179688c2.660156-1.859376 5.492188-3.464844 8.449219-4.800782 6.503906-2.84375 13.546875-4.25 20.640625-4.128906-3.863282-22.953125 5.875-46.078125 25-59.351562 2.214844-1.523438 4.527344-2.898438 6.917968-4.121094 7.09375-3.632813 14.851563-5.785156 22.804688-6.328125 1.46875-.175781 2.953125-.238281 4.4375-.199219 4.21875-.003906 8.429688.429688 12.558594 1.296875 1.886718-6.828125 4.789062-13.339844 8.621094-19.296875 2.121093-3.1875 4.492187-6.195312 7.101562-9.003906.566406-.617188 1.117188-1.230469 1.699219-1.824219 2.59375-2.679687 5.394531-5.140625 8.378906-7.375.132813-.085937.230469-.226563.371094-.316406-7.929688-53.875-54.273438-93.726563-108.730469-93.480469-8.558594-.023438-17.089844.980469-25.410156 2.996094h-.078125c-3.089844.738281-6.113281 1.589844-9.082031 2.554687-41.804688 13.675781-71.351563 51.066407-75 94.898438-.257813 3.140625-.398438 6.308593-.398438 9.511719 0 3.199218.082031 6.078124.359375 9.078124 3.941406 46.738282 37 85.871094 82.417969 97.570313 2.160156-2.355469 4.542968-4.496094 7.121094-6.390625.578124-.417969 1.1875-.847656 1.820312-1.289062zm0 0"/><path d="m510 275.25c-7.453125-.039062-14.8125 1.628906-21.519531 4.886719-3.835938 1.871093-8.4375 1.097656-11.453125-1.914063-3.011719-3.015625-3.785156-7.617187-1.914063-11.453125 3.25-6.707031 4.921875-14.070312 4.886719-21.519531-.035156-27.601562-22.398438-49.964844-50-50-5.210938-.042969-10.390625.785156-15.332031 2.449219-3.554688 1.109375-6.96875 2.636719-10.167969 4.550781-12.648438 7.433594-21.34375 20.105469-23.738281 34.582031-.238281 1.109375-.402344 2.234375-.484375 3.367188-.207032 3.273437-2.011719 6.226562-4.824219 7.921875-2.804687 1.6875-6.265625 1.894531-9.25.546875-5.085937-2.152344-10.542969-3.28125-16.0625-3.320313-.390625 0-.769531-.109375-1.160156-.109375-.390625-.007812-.78125.019531-1.171875.078125-7.394532.4375-14.527344 2.878906-20.640625 7.0625-9.195313 6.390625-15.277344 16.355469-16.746094 27.460938-.265625 1.792968-.40625 3.597656-.421875 5.410156-.007812 6.472656 1.570312 12.851562 4.609375 18.570312 2.023437 3.761719 1.429687 8.398438-1.480469 11.53125-2.902344 3.136719-7.484375 4.074219-11.390625 2.339844-1.1875-.542968-2.425781-.960937-3.695312-1.242187-2.617188-.761719-5.324219-1.164063-8.042969-1.199219-9.964844.042969-19.261719 5.015625-24.828125 13.28125-2.769531 3.964844-4.488281 8.570312-5 13.378906 0 1-.140625 2.097656-.140625 3.339844.007812 10.59375 5.617188 20.394531 14.75 25.769531 4.589844 2.78125 9.851562 4.246094 15.21875 4.230469h220c27.613281 0 50-22.386719 50-50s-22.386719-50-50-50zm0 0"/><path d="m50 205.25h100c0-3.617188.171875-7.210938.460938-10.773438.089843-1.164062.273437-2.316406.398437-3.484374.257813-2.375.523437-4.730469.898437-7.0625.226563-1.359376.53125-2.699219.789063-4.003907.414063-2.089843.832031-4.179687 1.34375-6.234375.347656-1.410156.757813-2.792968 1.148437-4.183594.5625-1.996093 1.132813-3.90625 1.78125-5.839843.460938-1.386719 1-2.757813 1.480469-4.125.699219-1.871094 1.429688-3.730469 2.214844-5.574219.574219-1.339844 1.171875-2.667969 1.785156-3.996094.847657-1.8125 1.738281-3.585937 2.667969-5.34375.671875-1.277344 1.339844-2.546875 2.054688-3.808594.992187-1.753906 2.058593-3.460937 3.136718-5.171874.738282-1.179688 1.480469-2.367188 2.269532-3.527344 1.167968-1.730469 2.417968-3.410156 3.6875-5.078125.78125-1.050781 1.542968-2.125 2.363281-3.140625 1.441406-1.792969 3-3.511719 4.488281-5.234375.742188-.820313 1.441406-1.691407 2.203125-2.5 2.289063-2.417969 4.65625-4.765625 7.128906-6.996094l.152344-.152344c2.527344-2.289062 5.160156-4.46875 7.867187-6.566406.890626-.683594 1.828126-1.304687 2.742188-2.003906 1.859375-1.363281 3.71875-2.71875 5.65625-4 1.160156-.75 2.359375-1.4375 3.542969-2.152344 1.765625-1.070313 3.527343-2.136719 5.359375-3.128906 1.320312-.71875 2.675781-1.378907 4-1.996094 1.757812-.878906 3.53125-1.746094 5.335937-2.539063 1.441407-.640624 2.910157-1.230468 4.378907-1.824218 1.003906-.398438 2.003906-.867188 3.003906-1.25-.511719-.390625-1-.769532-1.5625-1.132813-5.804688-4.0625-12.605469-6.484375-19.675782-6.996093-1.027343-.152344-2.066406-.210938-3.101562-.179688-5.582031-.03125-11.109375 1.136719-16.203125 3.417969-2.984375 1.347656-6.445313 1.140625-9.25-.546875-2.8125-1.695313-4.617187-4.648438-4.824219-7.921875-.066406-1.007813-.199218-2.011719-.402344-3-1.117187-6.8125-3.609374-13.332031-7.320312-19.152344-6.203125-9.59375-15.535156-16.757813-26.410156-20.269531-5.019532-1.710938-10.285156-2.566406-15.589844-2.527344-27.601562.035156-49.964844 22.398438-50 50-.035156 7.449219 1.636719 14.8125 4.886719 21.519531 1.871093 3.835938 1.097656 8.4375-1.914063 11.453125-3.015625 3.011719-7.617187 3.785156-11.453125 1.914063-6.707031-3.257813-14.066406-4.925781-21.519531-4.886719-27.613281 0-50 22.386719-50 50s22.386719 50 50 50zm0 0"/><path d="m280 55.25c5.523438 0 10-4.476562 10-10v-40c0-5.523438-4.476562-10-10-10s-10 4.476562-10 10v40c0 5.523438 4.476562 10 10 10zm0 0"/><path d="m141.421875 262.652344c-2.117187-5.109375-7.96875-7.53125-13.070313-5.410156l-36.949218 15.296874c-5.105469 2.113282-7.53125 7.964844-5.417969 13.066407 2.109375 5.101562 7.960937 7.523437 13.0625 5.414062l37.003906-15.300781c5.085938-2.128906 7.488281-7.980469 5.371094-13.066406zm0 0"/><path d="m222.597656 353.828125c-5.101562-2.113281-10.953125.308594-13.066406 5.410156l-15.3125 37.003907c-2.109375 5.101562.3125 10.949218 5.414062 13.058593 5.101563 2.117188 10.953126-.304687 13.066407-5.414062l15.300781-36.988281c2.117188-5.101563-.300781-10.949219-5.402344-13.070313zm0 0"/><path d="m418.578125 147.847656c2.117187 5.105469 7.96875 7.527344 13.070313 5.410156l37.003906-15.296874c5.101562-2.117188 7.523437-7.964844 5.414062-13.066407-2.113281-5.105469-7.964844-7.527343-13.066406-5.417969l-37 15.304688c-2.453125 1.011719-4.398438 2.957031-5.421875 5.410156-1.015625 2.449219-1.015625 5.203125 0 7.65625zm0 0"/><path d="m337.402344 66.671875c1.210937.496094 2.515625.753906 3.828125.753906 4.042969.007813 7.691406-2.429687 9.238281-6.164062l15.3125-37.003907c2.109375-5.101562-.3125-10.953124-5.414062-13.0625-5.101563-2.113281-10.953126.308594-13.066407 5.417969l-15.308593 36.996094c-2.113282 5.101563.308593 10.945313 5.410156 13.0625zm0 0"/><path d="m159.789062 311.308594-28.28125 28.300781c-2.597656 2.511719-3.640624 6.230469-2.722656 9.726563.910156 3.496093 3.640625 6.226562 7.136719 7.140624 3.496094.917969 7.21875-.128906 9.726563-2.726562l28.292968-28.289062c3.90625-3.90625 3.90625-10.246094 0-14.152344s-10.246094-3.90625-14.152344 0zm0 0"/><path d="m393.128906 102.121094c2.65625 0 5.207032-1.050782 7.082032-2.929688l28.28125-28.300781c3.789062-3.925781 3.734374-10.164063-.125-14.019531-3.855469-3.859375-10.09375-3.910156-14.015626-.121094l-28.292968 28.289062c-2.863282 2.863282-3.722656 7.164063-2.175782 10.902344 1.546876 3.742188 5.199219 6.183594 9.246094 6.179688zm0 0"/></svg>
