<?xml version="1.0" encoding="iso-8859-1"?>
<!-- Generator: Adobe Illustrator 19.0.0, SVG Export Plug-In . SVG Version: 6.00 Build 0)  -->
<svg version="1.1" id="Capa_1" xmlns="http://www.w3.org/2000/svg" xmlns:xlink="http://www.w3.org/1999/xlink" x="0px" y="0px"
	 viewBox="0 0 368 368" style="fill: white;" xml:space="preserve">
<g>
	<g>
		<path d="M301.536,112.284c-11.176-55.32-60.48-96.28-117.536-96.28c-57.064,0-106.36,40.96-117.528,96.28
			C29.352,115.124,0,146.172,0,184.004c0,39.696,32.296,72,72,72h32c4.424,0,8-3.584,8-8c0-4.416-3.576-8-8-8H72
			c-30.872,0-56-25.12-56-56s25.128-56,55.616-56.064c0.088,0.016,0.184,0.008,0.272,0.024c0.04,0.008,0.064,0.032,0.104,0.04
			c0.376,0.056,0.744,0.08,1.112,0.08c0.008,0,0.016,0,0.024,0c4.168,0,8.456,0.544,12.752,1.624
			c0.312,0.136,0.64,0.248,0.976,0.336c14.088,3.848,26.352,13.312,33.656,25.96c2.208,3.832,7.104,5.128,10.928,2.928
			c3.832-2.208,5.144-7.104,2.928-10.928c-9.2-15.936-24.52-27.936-42.168-33.08c-0.368-0.168-0.752-0.304-1.152-0.408
			c-2.8-0.752-5.6-1.32-8.4-1.72c10.68-46.608,52.8-80.792,101.352-80.792c48.544,0,90.672,34.184,101.352,80.792
			c-2.8,0.408-5.608,0.968-8.4,1.728c-0.392,0.104-0.768,0.24-1.136,0.4c-17.64,5.136-32.968,17.144-42.184,33.08
			c-2.208,3.832-0.896,8.72,2.928,10.928c3.816,2.216,8.712,0.904,10.928-2.92c7.312-12.656,19.576-22.12,33.656-25.968
			c0.328-0.096,0.656-0.2,0.968-0.336c4.296-1.08,8.584-1.624,12.768-1.624c0.512,0.008,0.616,0.024,1.12-0.08
			c30.872,0,56,25.12,56,56s-25.128,56-56,56h-32c-4.424,0-8,3.584-8,8c0,4.416,3.576,8,8,8h32c39.704,0,72-32.304,72-72
			C368,146.172,338.656,115.132,301.536,112.284z"/>
	</g>
</g>
<g>
	<g>
		<path d="M216,264.004h-46.184l52.168-58.68c2.928-3.312,2.632-8.36-0.672-11.304c-3.296-2.936-8.36-2.64-11.288,0.664l-64,72
			c-2.096,2.352-2.608,5.72-1.32,8.592c1.288,2.872,4.144,4.728,7.296,4.728h47.64l-45.952,59.088
			c-2.72,3.488-2.088,8.512,1.4,11.224c1.464,1.136,3.192,1.68,4.904,1.68c2.384,0,4.744-1.064,6.32-3.088l56-72
			c1.872-2.408,2.216-5.68,0.872-8.424C221.84,265.748,219.056,264.004,216,264.004z"/>
	</g>
</g>
<g>
</g>
<g>
</g>
<g>
</g>
<g>
</g>
<g>
</g>
<g>
</g>
<g>
</g>
<g>
</g>
<g>
</g>
<g>
</g>
<g>
</g>
<g>
</g>
<g>
</g>
<g>
</g>
<g>
</g>
</svg>
